<?xml version="1.0" encoding="UTF-8"?>
<svg version="1.1" xmlns="http://www.w3.org/2000/svg" width="479" height="451">
<path d="M0 0 C158.07 0 316.14 0 479 0 C479 148.83 479 297.66 479 451 C320.93 451 162.86 451 0 451 C0 302.17 0 153.34 0 0 Z " fill="#FCFDFD" transform="translate(0,0)"/>
<path d="M0 0 C2.7546408 5.50928159 0.45536414 12.30376654 -1.0625 17.9375 C-1.28365479 18.76435303 -1.50480957 19.59120605 -1.73266602 20.44311523 C-7.83536615 42.27192378 -20.20353222 60.96692251 -35.703125 77.3046875 C-36.34110519 77.98084106 -36.97908539 78.65699463 -37.63639832 79.3536377 C-45.23830706 87.36762314 -53.01917063 95.20524954 -60.82983398 103.01513672 C-63.360126 105.54766815 -65.88223913 108.08817737 -68.40429688 110.62890625 C-70.01513844 112.24267333 -71.62644806 113.85597336 -73.23828125 115.46875 C-74.36620842 116.60745544 -74.36620842 116.60745544 -75.516922 117.76916504 C-76.20912338 118.45828979 -76.90132477 119.14741455 -77.61450195 119.85742188 C-78.22211868 120.46646362 -78.82973541 121.07550537 -79.45576477 121.70300293 C-81 123 -81 123 -83 123 C-83.3403125 123.8353125 -83.3403125 123.8353125 -83.6875 124.6875 C-85.82941987 128.46135882 -88.69963788 131.19399042 -92.36328125 133.46484375 C-95.25493266 135.4480759 -97.06960335 137.05561478 -99 140 C-99.81924495 146.12821028 -98.96704049 151.92531961 -98 158 C-97.85771973 158.90298828 -97.71543945 159.80597656 -97.56884766 160.73632812 C-96.78430553 165.57644011 -95.9299418 170.4010757 -95.0390625 175.22265625 C-94.0621527 180.5495628 -93.24403621 185.88611424 -92.5 191.25 C-92.38213135 192.09353027 -92.2642627 192.93706055 -92.14282227 193.80615234 C-91.89536417 195.57984997 -91.64838943 197.35361509 -91.40185547 199.12744141 C-89.32933725 213.94229523 -87.13067452 228.71053364 -84.36181641 243.41235352 C-83.37453068 248.72061063 -82.55368965 254.01130404 -81.9375 259.375 C-81.2640014 265.20607998 -80.30151431 270.9150035 -79.17333984 276.67407227 C-77.97493549 282.89965605 -77.0658336 289.15275999 -76.20214844 295.43261719 C-75.49305878 300.58138567 -74.73755898 305.71847753 -73.921875 310.8515625 C-68.97409319 342.15729189 -68.97409319 342.15729189 -72.32128906 346.85400391 C-74.14043651 348.98670811 -76.03604952 350.99991039 -78 353 C-78.65814697 353.67442139 -79.31629395 354.34884277 -79.99438477 355.04370117 C-82.00800601 357.06269403 -84.05860142 359.03516355 -86.125 361 C-86.81464844 361.67933594 -87.50429688 362.35867188 -88.21484375 363.05859375 C-88.88902344 363.69925781 -89.56320312 364.33992188 -90.2578125 365 C-90.8573877 365.5775 -91.45696289 366.155 -92.07470703 366.75 C-94.56142802 368.36450818 -96.08891081 368.38030151 -99 368 C-102.72400532 364.30486293 -105.151681 359.5272509 -107.75 355 C-110.847364 349.66157507 -113.98446984 344.36240799 -117.25 339.125 C-119.53074415 335.44594247 -121.71315139 331.75659115 -123.75 327.9375 C-130.38420778 315.55727072 -137.9221153 303.62535581 -145.37890625 291.7265625 C-147 289 -147 289 -148.33203125 286.30078125 C-150.71188378 281.59123702 -153.42699474 277.0954285 -156.125 272.5625 C-156.7039502 271.58619629 -157.28290039 270.60989258 -157.87939453 269.60400391 C-161.19502737 264.01789336 -164.52771436 258.44218945 -167.875 252.875 C-169.25106118 250.58396621 -170.62578247 248.29214147 -172 246 C-172.34853027 245.41943848 -172.69706055 244.83887695 -173.05615234 244.24072266 C-174.06303006 242.55915722 -175.06292206 240.87341488 -176.0625 239.1875 C-176.91521484 237.75470703 -176.91521484 237.75470703 -177.78515625 236.29296875 C-179 234 -179 234 -179 232 C-179.66 232 -180.32 232 -181 232 C-182.98 228.535 -182.98 228.535 -185 225 C-188.77297973 226.5846205 -191.29524171 228.95502089 -194.2434082 231.76245117 C-194.75278427 232.2458345 -195.26216034 232.72921783 -195.78697205 233.22724915 C-201.09649408 238.28353198 -206.33778884 243.41119814 -211.57348633 248.54370117 C-214.05490298 250.97167367 -216.55634078 253.37572789 -219.07836914 255.76147461 C-222.13405542 258.65249578 -225.1479086 261.58164926 -228.13716698 264.54125404 C-229.27698309 265.65670403 -230.43044702 266.75839646 -231.59780312 267.84499168 C-238.51957497 274.22138169 -238.51957497 274.22138169 -241.48161316 282.9225769 C-241.37293066 286.68593775 -240.72425721 290.30749201 -240 294 C-239.77805304 295.99291841 -239.57017467 297.98754548 -239.38671875 299.984375 C-239.15856278 301.90683992 -238.92538568 303.82871478 -238.6875 305.75 C-238.56141357 306.79422119 -238.43532715 307.83844238 -238.30541992 308.91430664 C-237.15338045 318.23497633 -235.76973148 327.51912866 -234.27026367 336.79003906 C-231.67380941 353.41443561 -231.67380941 353.41443561 -233.92553711 357.80444336 C-235.20159462 359.4438631 -236.54485609 360.83245026 -238.0625 362.25 C-238.56547607 362.75305664 -239.06845215 363.25611328 -239.58666992 363.77441406 C-241.03435311 365.20700997 -242.51640952 366.60462301 -244 368 C-244.68578125 368.6909375 -245.3715625 369.381875 -246.078125 370.09375 C-248.74574281 372.64120484 -250.58497683 373.92816907 -254.25 374.5625 C-257.36015173 373.9263326 -257.9965869 373.35646118 -260 371 C-261.03979492 369.16918945 -261.03979492 369.16918945 -261.98046875 367.11328125 C-262.33584717 366.34757812 -262.69122559 365.581875 -263.05737305 364.79296875 C-263.61678589 363.56513672 -263.61678589 363.56513672 -264.1875 362.3125 C-264.98823019 360.58921436 -265.79033728 358.8665679 -266.59375 357.14453125 C-266.9959375 356.28037598 -267.398125 355.4162207 -267.8125 354.52587891 C-272.05688682 345.49783079 -276.57602184 336.59877938 -281.421875 327.87890625 C-282.66749115 325.60658175 -283.88111565 323.32523238 -285.078125 321.02734375 C-285.43777344 320.340354 -285.79742187 319.65336426 -286.16796875 318.94555664 C-286.87822516 317.58642202 -287.58410619 316.2249901 -288.28515625 314.86108398 C-289.97979624 311.31151053 -289.97979624 311.31151053 -293 309 C-297.14951644 310.55606867 -301.06278188 312.51334016 -305.03125 314.48046875 C-305.92457031 314.92197266 -306.81789063 315.36347656 -307.73828125 315.81835938 C-309.58411454 316.73344363 -311.42528396 317.65799446 -313.26171875 318.59179688 C-318.3733427 321.09597628 -322.27639803 322.9413819 -328 322 C-330.8858455 317.67123175 -330.80196752 314.07912763 -330 309 C-327.42204573 302.58178283 -323.53914189 297.02210948 -319.1015625 291.75390625 C-317.645425 289.78063643 -317.645425 289.78063643 -318 286 C-320.40971671 283.96320003 -320.40971671 283.96320003 -323.625 282.1875 C-324.20386963 281.84493164 -324.78273926 281.50236328 -325.37915039 281.14941406 C-330.71952257 278.040465 -336.23438751 275.30177561 -341.80859375 272.640625 C-345.05688197 270.97075835 -347.98244955 269.05258852 -351 267 C-352.54809667 266.09976227 -354.11098707 265.22449292 -355.6875 264.375 C-357.08742188 263.61509766 -357.08742188 263.61509766 -358.515625 262.83984375 C-361.26445278 261.38838872 -364.02357116 259.96983655 -366.796875 258.56640625 C-367.64290283 258.13344238 -368.48893066 257.70047852 -369.3605957 257.25439453 C-371.05202816 256.39000925 -372.74838102 255.5351719 -374.44995117 254.69091797 C-378.89269011 252.41168261 -382.530362 250.52879122 -385 246 C-385.7109375 242.6796875 -385.7109375 242.6796875 -385 239 C-382.87036882 236.01432592 -380.31264302 233.60665578 -377.625 231.125 C-376.57699219 230.11179687 -376.57699219 230.11179687 -375.5078125 229.078125 C-369.55771447 223.37976189 -366.60533576 222.66420341 -358.25390625 222.70703125 C-351.89924507 223.00179656 -345.77455081 224.58270493 -339.59375 225.9921875 C-335.74529854 226.86410228 -331.91625927 227.49674238 -328 228 C-321.72822989 228.8186926 -315.60703133 230.07777012 -309.44921875 231.50390625 C-307.95248166 231.83797587 -306.44869518 232.14174093 -304.93997192 232.41665649 C-302.76879213 232.84745776 -300.61724208 233.38003676 -298.48287964 233.96664429 C-293.7186088 235.10932255 -288.7583234 236.26580173 -284.13731766 234.14521027 C-279.47384858 231.01014867 -275.76256345 226.82953197 -271.96875 222.7265625 C-270.71765948 221.44184661 -269.46249594 220.16108579 -268.20349121 218.88412476 C-264.92014408 215.53245171 -261.69445569 212.13035582 -258.47833252 208.71429443 C-255.17922119 205.23014054 -251.82774199 201.79717007 -248.48046875 198.359375 C-241.93507842 191.62165934 -235.44953269 184.82944061 -229 178 C-231.84102194 175.83724889 -234.67425016 173.96499371 -237.7890625 172.21484375 C-238.72105469 171.68955078 -239.65304688 171.16425781 -240.61328125 170.62304688 C-241.60714844 170.06681641 -242.60101563 169.51058594 -243.625 168.9375 C-244.65753906 168.35677734 -245.69007813 167.77605469 -246.75390625 167.17773438 C-253.53805058 163.36637022 -260.33706856 159.58202397 -267.14453125 155.8125 C-276.2445747 150.76773438 -285.29060876 145.62715517 -294.34521484 140.50146484 C-298.03952014 138.41207938 -301.73773556 136.32969994 -305.4375 134.25 C-306.0756665 133.89123779 -306.71383301 133.53247559 -307.37133789 133.1628418 C-309.24744518 132.10835921 -311.12369302 131.05412722 -313 130 C-323.1722252 124.28514649 -333.33431981 118.55263445 -343.49023438 112.80883789 C-348.52230734 109.96347944 -353.55638748 107.12184415 -358.59692383 104.29150391 C-361.11608844 102.87656634 -363.63320154 101.45799897 -366.15039062 100.03955078 C-368.09269952 98.94789934 -370.03855894 97.86272944 -371.984375 96.77734375 C-373.2605462 96.06012627 -374.53659297 95.34268733 -375.8125 94.625 C-376.93269531 93.99851562 -378.05289063 93.37203125 -379.20703125 92.7265625 C-383.57950949 90.02357595 -383.57950949 90.02357595 -385 88 C-385.56445139 84.75044808 -385.30929229 83.4482052 -383.42578125 80.71875 C-382.72839844 79.9865625 -382.03101563 79.254375 -381.3125 78.5 C-380.57515625 77.71753906 -379.8378125 76.93507813 -379.078125 76.12890625 C-378.39234375 75.42636719 -377.7065625 74.72382812 -377 74 C-375.7934375 72.7315625 -375.7934375 72.7315625 -374.5625 71.4375 C-373.716875 70.633125 -372.87125 69.82875 -372 69 C-371.34386719 68.31421875 -370.68773437 67.6284375 -370.01171875 66.921875 C-369.26535156 66.18453125 -368.51898438 65.4471875 -367.75 64.6875 C-367.06421875 63.99011719 -366.3784375 63.29273437 -365.671875 62.57421875 C-358.66335944 58.44493253 -348.63947504 61.64488661 -341.0625 62.875 C-339.94681641 63.04902344 -338.83113281 63.22304687 -337.68164062 63.40234375 C-331.81870722 64.32969701 -326.00155592 65.38115306 -320.18774414 66.57568359 C-317.20219898 67.15473476 -314.20757356 67.52391197 -311.1875 67.875 C-305.02553973 68.66150146 -298.96828708 69.73401959 -292.875 70.9375 C-284.78527519 72.53202424 -276.69363134 73.8117557 -268.52490234 74.92553711 C-263.31335388 75.64445553 -258.1636746 76.49232639 -253 77.5 C-246.187921 78.82266725 -239.36339788 79.84655253 -232.49145508 80.8046875 C-218.0650618 82.81869869 -203.61300044 84.83851203 -189.3125 87.625 C-183.16474327 88.82236414 -177.02210259 89.68507079 -170.80859375 90.4609375 C-165.4099984 91.22504638 -160.09177272 92.30816606 -154.75390625 93.4140625 C-147.02166203 94.78975665 -147.02166203 94.78975665 -140.0974884 92.05952454 C-139.20655991 91.15083115 -138.31563141 90.24213776 -137.39770508 89.3059082 C-136.89738266 88.806754 -136.39706024 88.30759979 -135.88157654 87.7933197 C-134.24119937 86.14739401 -132.63096178 84.47501581 -131.01953125 82.80078125 C-129.87885404 81.64516309 -128.73638263 80.49131343 -127.59220886 79.3391571 C-124.58904666 76.30551642 -121.6106563 73.24865504 -118.63690186 70.18621826 C-115.61681124 67.08448992 -112.57417264 64.00506496 -109.53320312 60.92382812 C-104.17779563 55.49196062 -98.84259571 50.04092914 -93.52156067 44.57539368 C-91.03176359 42.03244172 -88.51721657 39.5157637 -86 37 C-85.195625 36.16082031 -84.39125 35.32164063 -83.5625 34.45703125 C-69.01166633 19.44039345 -21.87663124 -17.23613371 0 0 Z " fill="#0E78BF" transform="translate(438,50)"/>
<path d="M0 0 C0.33 0.66 0.66 1.32 1 2 C-0.98 4.31 -2.96 6.62 -5 9 C-5.99 8.67 -6.98 8.34 -8 8 C-5.36 5.36 -2.72 2.72 0 0 Z " fill="#277EC1" transform="translate(312,127)"/>
<path d="M0 0 C1.98 0 3.96 0 6 0 C4.35830472 2.02054804 2.69088222 4.02043058 1 6 C0.67 6 0.34 6 0 6 C0 4.02 0 2.04 0 0 Z " fill="#F5F5F5" transform="translate(0,0)"/>
</svg>
